<svg xmlns="http://www.w3.org/2000/svg" width="800" height="450" viewBox="0 0 800 450" fill="none">
  <title>Archive Site Template</title>
  <defs>
    <linearGradient id="bg" x1="0" y1="0" x2="800" y2="450" gradientUnits="userSpaceOnUse">
      <stop stop-color="#FFFFFF" />
      <stop offset="1" stop-color="#F4F4F5" />
    </linearGradient>
  </defs>

  <rect x="0.5" y="0.5" width="799" height="449" rx="28" fill="url(#bg)" stroke="#E4E4E7" />

  <g stroke-linecap="round" stroke-linejoin="round">
    <!-- Window -->
    <rect x="74" y="44" width="652" height="366" rx="26" fill="#FFFFFF" stroke="#A1A1AA" stroke-width="10" />
    <path d="M80 89h640" stroke="#A1A1AA" stroke-width="10" opacity="0.9" />

    <!-- Controls -->
    <circle cx="110" cy="68" r="10" fill="#CBB089" opacity="0.85" />
    <circle cx="140" cy="68" r="10" fill="#CBB089" opacity="0.55" />
    <circle cx="170" cy="68" r="10" fill="#CBB089" opacity="0.35" />

    <!-- App background -->
   
    <!-- Top nav -->
    <rect x="106" y="110" width="588" height="46" rx="18" fill="#FFFFFF" stroke="#E4E4E7" stroke-width="6" />

    <!-- Brand (logo + title) -->
    <rect x="124" y="124" width="18" height="18" rx="4" fill="#CBB089" opacity="0.55" stroke="#CBB089" stroke-width="4" />
    <path d="M152 127h60" stroke="#A1A1AA" stroke-width="8" opacity="0.9" />
    <path d="M151 139h50" stroke="#A1A1AA" stroke-width="6" opacity="0.85" />

    <!-- Tabs -->
    <rect x="230" y="120" width="50" height="26" rx="13" fill="#FFFFFF" stroke="#E4E4E7" stroke-width="4" />
    <rect x="290" y="120" width="50" height="26" rx="13" fill="#2563EB" stroke="#1D4ED8" stroke-width="4" />
    <rect x="350" y="120" width="50" height="26" rx="13" fill="#FFFFFF" stroke="#E4E4E7" stroke-width="4" />

    <!-- Search -->
    <rect x="420" y="120" width="190" height="26" rx="13" fill="#FFFFFF" stroke="#E4E4E7" stroke-width="4" />
    <circle cx="434" cy="130" r="3" fill="none" stroke="#A1A1AA" stroke-width="4" />
    <path d="M437 134l3 3" stroke="#A1A1AA" stroke-width="6" />
    <path d="M456 133h80" stroke="#A1A1AA" stroke-width="8" opacity="0.85" />

    <!-- Join button -->
    <rect x="628" y="120" width="56" height="26" rx="13" fill="#2563EB" opacity="0.95" />
 
    <!-- Sidebar (channels / filters) -->
    <rect x="106" y="180" width="176" height="210" rx="18" fill="#FFFFFF" stroke="#E4E4E7" stroke-width="6" />
    <path d="M126 206h86" stroke="#A1A1AA" stroke-width="10" opacity="0.9" />
    <path d="M126 228h136" stroke="#E4E4E7" stroke-width="8" opacity="0.9" />

    <rect x="120" y="250" width="148" height="32" rx="12" fill="#F4F4F5" stroke="#E4E4E7" stroke-width="6" />
    <path d="M134 266h74" stroke="#A1A1AA" stroke-width="8" />
    <rect x="120" y="295" width="148" height="32" rx="12" fill="#F4F4F5" stroke="#E4E4E7" stroke-width="6" />
    <path d="M134 312h96" stroke="#A1A1AA" stroke-width="8" />
    <rect x="120" y="340" width="148" height="32" rx="12" fill="#F4F4F5" stroke="#E4E4E7" stroke-width="6" />
    <path d="M134 356h84" stroke="#A1A1AA" stroke-width="8" />

    <!-- Main content: tag pills -->
    <rect x="300" y="180" width="394" height="40" rx="18" fill="#FFFFFF" stroke="#E4E4E7" stroke-width="6" />
    <rect x="316" y="192" width="76" height="16" rx="8" fill="#FEF3C7" stroke="#F59E0B" stroke-width="4" opacity="0.85" />
    <rect x="398" y="192" width="74" height="16" rx="8" fill="#DCFCE7" stroke="#16A34A" stroke-width="4" opacity="0.85" />
    <rect x="478" y="192" width="96" height="16" rx="8" fill="#DBEAFE" stroke="#2563EB" stroke-width="4" opacity="0.85" />
    <rect x="580" y="192" width="92" height="16" rx="8" fill="#FCE7F3" stroke="#DB2777" stroke-width="4" opacity="0.70" />

    <!-- Cards (grid preview) -->
    <rect x="300" y="244" width="120" height="146" rx="18" fill="#FFFFFF" stroke="#E4E4E7" stroke-width="6" />
    <rect x="312" y="256" width="96" height="62" rx="14" fill="#F4F4F5" stroke="#E4E4E7" stroke-width="6" />
    <!-- Thumbnail accents (reuse shapes from archive-downloader-mod.svg) -->
    <rect x="330" y="268" width="26" height="16" rx="4" fill="#CBB089" opacity="0.30" />
    <rect x="364" y="268" width="26" height="16" rx="4" fill="#CBB089" opacity="0.18" />
    <rect x="330" y="288" width="26" height="16" rx="4" fill="#CBB089" opacity="0.18" />
    <rect x="364" y="288" width="26" height="16" rx="4" fill="#CBB089" opacity="0.30" />
    <path d="M312 338h84" stroke="#A1A1AA" stroke-width="10" opacity="0.9" />
    <path d="M312 364h62" stroke="#A1A1AA" stroke-width="10" opacity="0.85" />

    <rect x="434" y="244" width="120" height="146" rx="18" fill="#FFFFFF" stroke="#E4E4E7" stroke-width="6" />
    <rect x="446" y="256" width="96" height="62" rx="14" fill="#F4F4F5" stroke="#E4E4E7" stroke-width="6" />
    <path d="M480 274l52 28-52 8 18-36z" fill="#CBB089" opacity="0.22" />
    <path d="M446 338h86" stroke="#A1A1AA" stroke-width="10" opacity="0.9" />
    <path d="M446 364h58" stroke="#A1A1AA" stroke-width="10" opacity="0.85" />

    <rect x="568" y="244" width="120" height="146" rx="18" fill="#FFFFFF" stroke="#E4E4E7" stroke-width="6" />
    <rect x="580" y="256" width="96" height="62" rx="14" fill="#F4F4F5" stroke="#E4E4E7" stroke-width="6" />
    <rect x="596" y="274" width="18" height="18" rx="4" fill="#CBB089" opacity="0.28" />
    <rect x="618" y="274" width="18" height="18" rx="4" fill="#CBB089" opacity="0.18" />
    <rect x="640" y="274" width="18" height="18" rx="4" fill="#CBB089" opacity="0.28" />
    <path d="M580 338h78" stroke="#A1A1AA" stroke-width="10" opacity="0.9" />
    <path d="M580 364h66" stroke="#A1A1AA" stroke-width="10" opacity="0.85" />
  </g>
</svg>
